{
    "asset" : {
        "generator" : "Khronos glTF Blender I/O v1.8.19",
        "version" : "2.0"
    },
    "extensionsUsed" : [
        "KHR_lights_punctual"
    ],
    "extensionsRequired" : [
        "KHR_lights_punctual"
    ],
    "extensions" : {
        "KHR_lights_punctual" : {
            "lights" : [
                {
                    "color" : [
                        1,
                        1,
                        1
                    ],
                    "intensity" : 1902.0999755859375,
                    "type" : "point",
                    "name" : "Light"
                },
                {
                    "color" : [
                        1,
                        1,
                        1
                    ],
                    "intensity" : 1902.0999755859375,
                    "type" : "point",
                    "name" : "Light.002"
                }
            ]
        }
    },
    "scene" : 0,
    "scenes" : [
        {
            "name" : "Scene",
            "nodes" : [
                1,
                3,
                4,
                5,
                6,
                8
            ]
        }
    ],
    "nodes" : [
        {
            "extensions" : {
                "KHR_lights_punctual" : {
                    "light" : 0
                }
            },
            "name" : "Light_Orientation",
            "rotation" : [
                -0.7071067690849304,
                0,
                0,
                0.7071067690849304
            ]
        },
        {
            "children" : [
                0
            ],
            "name" : "Light",
            "rotation" : [
                0.16907575726509094,
                0.7558803558349609,
                -0.27217137813568115,
                0.570947527885437
            ],
            "translation" : [
                16.7435359954834,
                5.57838773727417,
                2.2706289291381836
            ]
        },
        {
            "camera" : 0,
            "name" : "Camera_Orientation",
            "rotation" : [
                -0.7071067690849304,
                0,
                0,
                0.7071067690849304
            ]
        },
        {
            "children" : [
                2
            ],
            "name" : "Camera",
            "rotation" : [
                0.483536034822464,
                0.33687159419059753,
                -0.20870360732078552,
                0.7804827094078064
            ],
            "translation" : [
                22.289249420166016,
                14.902944564819336,
                21.002979278564453
            ]
        },
        {
            "mesh" : 0,
            "name" : "Bunny",
            "translation" : [
                -4.247145175933838,
                0.2694728970527649,
                -0.2484731823205948
            ]
        },
        {
            "mesh" : 1,
            "name" : "Kitty",
            "translation" : [
                -0.5354504585266113,
                0.4922182857990265,
                -0.20004317164421082
            ]
        },
        {
            "mesh" : 2,
            "name" : "Puppy",
            "translation" : [
                4.156984806060791,
                0.8254215717315674,
                -0.9048722982406616
            ]
        },
        {
            "extensions" : {
                "KHR_lights_punctual" : {
                    "light" : 1
                }
            },
            "name" : "Light.002_Orientation",
            "rotation" : [
                -0.7071067690849304,
                0,
                0,
                0.7071067690849304
            ]
        },
        {
            "children" : [
                7
            ],
            "name" : "Light.002",
            "rotation" : [
                0.16907575726509094,
                0.7558803558349609,
                -0.27217137813568115,
                0.570947527885437
            ],
            "translation" : [
                -15.631589889526367,
                1.550320029258728,
                -12.750954627990723
            ]
        }
    ],
    "cameras" : [
        {
            "name" : "Camera",
            "perspective" : {
                "aspectRatio" : 1.7777777777777777,
                "yfov" : 0.39959652046304894,
                "zfar" : 100,
                "znear" : 0.10000000149011612
            },
            "type" : "perspective"
        }
    ],
    "meshes" : [
        {
            "name" : "Mesh",
            "primitives" : [
                {
                    "attributes" : {
                        "POSITION" : 0,
                        "NORMAL" : 1,
                        "TEXCOORD_0" : 2
                    },
                    "indices" : 3
                }
            ]
        },
        {
            "name" : "Mesh",
            "primitives" : [
                {
                    "attributes" : {
                        "POSITION" : 4,
                        "NORMAL" : 5,
                        "TEXCOORD_0" : 6
                    },
                    "indices" : 7
                }
            ]
        },
        {
            "name" : "Mesh",
            "primitives" : [
                {
                    "attributes" : {
                        "POSITION" : 8,
                        "NORMAL" : 9,
                        "TEXCOORD_0" : 10
                    },
                    "indices" : 11
                }
            ]
        }
    ],
    "accessors" : [
        {
            "bufferView" : 0,
            "componentType" : 5126,
            "count" : 8902,
            "max" : [
                1.029444694519043,
                2.116771936416626,
                3.1664295196533203
            ],
            "min" : [
                -1.0294445753097534,
                -1.1287003755569458,
                -1.1772140264511108
            ],
            "type" : "VEC3"
        },
        {
            "bufferView" : 1,
            "componentType" : 5126,
            "count" : 8902,
            "type" : "VEC3"
        },
        {
            "bufferView" : 2,
            "componentType" : 5126,
            "count" : 8902,
            "type" : "VEC2"
        },
        {
            "bufferView" : 3,
            "componentType" : 5123,
            "count" : 45312,
            "type" : "SCALAR"
        },
        {
            "bufferView" : 4,
            "componentType" : 5126,
            "count" : 3262,
            "max" : [
                0.9279813170433044,
                1.3986506462097168,
                3.3950307369232178
            ],
            "min" : [
                -0.9279813766479492,
                -1.6940481662750244,
                -4.938500881195068
            ],
            "type" : "VEC3"
        },
        {
            "bufferView" : 5,
            "componentType" : 5126,
            "count" : 3262,
            "type" : "VEC3"
        },
        {
            "bufferView" : 6,
            "componentType" : 5126,
            "count" : 3262,
            "type" : "VEC2"
        },
        {
            "bufferView" : 7,
            "componentType" : 5123,
            "count" : 14928,
            "type" : "SCALAR"
        },
        {
            "bufferView" : 8,
            "componentType" : 5126,
            "count" : 2561,
            "max" : [
                1.4326335191726685,
                1.184297800064087,
                4.165503025054932
            ],
            "min" : [
                -1.432633399963379,
                -1.693261981010437,
                -2.417006492614746
            ],
            "type" : "VEC3"
        },
        {
            "bufferView" : 9,
            "componentType" : 5126,
            "count" : 2561,
            "type" : "VEC3"
        },
        {
            "bufferView" : 10,
            "componentType" : 5126,
            "count" : 2561,
            "type" : "VEC2"
        },
        {
            "bufferView" : 11,
            "componentType" : 5123,
            "count" : 11664,
            "type" : "SCALAR"
        }
    ],
    "bufferViews" : [
        {
            "buffer" : 0,
            "byteLength" : 106824,
            "byteOffset" : 0
        },
        {
            "buffer" : 0,
            "byteLength" : 106824,
            "byteOffset" : 106824
        },
        {
            "buffer" : 0,
            "byteLength" : 71216,
            "byteOffset" : 213648
        },
        {
            "buffer" : 0,
            "byteLength" : 90624,
            "byteOffset" : 284864
        },
        {
            "buffer" : 0,
            "byteLength" : 39144,
            "byteOffset" : 375488
        },
        {
            "buffer" : 0,
            "byteLength" : 39144,
            "byteOffset" : 414632
        },
        {
            "buffer" : 0,
            "byteLength" : 26096,
            "byteOffset" : 453776
        },
        {
            "buffer" : 0,
            "byteLength" : 29856,
            "byteOffset" : 479872
        },
        {
            "buffer" : 0,
            "byteLength" : 30732,
            "byteOffset" : 509728
        },
        {
            "buffer" : 0,
            "byteLength" : 30732,
            "byteOffset" : 540460
        },
        {
            "buffer" : 0,
            "byteLength" : 20488,
            "byteOffset" : 571192
        },
        {
            "buffer" : 0,
            "byteLength" : 23328,
            "byteOffset" : 591680
        }
    ],
    "buffers" : [
        {
            "byteLength" : 615008,
            "uri" : "data:application/octet-stream;base64,"
        }
    ]
}
